<svg width="164" height="47" viewBox="0 0 164 47" fill="none" xmlns="http://www.w3.org/2000/svg">
<path d="M0 46.3525H19.2416C29.3572 46.3525 34.7449 40.9938 34.7449 33.715C34.7449 26.9496 29.973 22.8637 24.8492 22.6181V22.1715C29.5331 21.0998 32.9856 17.7283 32.9856 12.3473C32.9856 5.49264 27.9718 0.625179 18.0322 0.625179H0V46.3525ZM9.52186 38.4485V26.3021H17.5044C22.0784 26.3021 24.9152 28.9815 24.9152 32.7549C24.9152 36.1934 22.6062 38.4485 17.2845 38.4485H9.52186ZM9.52186 19.7601V8.4399H16.7567C20.9789 8.4399 23.3758 10.6504 23.3758 13.9549C23.3758 17.572 20.4731 19.7601 16.5808 19.7601H9.52186Z" fill="#CED8F2"/>
<path d="M64.1335 13.7762H73.2596C73.1276 5.6266 66.5305 0 56.5029 0C46.6292 0 39.3943 5.53729 39.4383 13.8432C39.4163 20.5862 44.1003 24.4489 51.709 26.3021L56.6128 27.5525C61.5167 28.7582 64.2435 30.1872 64.2655 33.2684C64.2435 36.6176 61.1209 38.895 56.283 38.895C51.3351 38.895 47.7727 36.5729 47.4648 31.9957H38.2508C38.4927 41.8869 45.4637 47 56.3929 47C67.3881 47 73.8533 41.6637 73.8753 33.2907C73.8533 25.677 68.2018 21.6356 60.3732 19.8494L56.3269 18.867C52.4126 17.9515 49.1361 16.4779 49.202 13.1957C49.202 10.2485 51.7749 8.08266 56.4369 8.08266C60.9889 8.08266 63.7817 10.1815 64.1335 13.7762Z" fill="#CED8F2"/>
<path d="M85.7761 46.3525L89.1186 35.9254H105.37L108.712 46.3525H118.916L103.39 0.625179H91.1198L75.5725 46.3525H85.7761ZM91.5376 28.3786L97.0792 11.0746H97.431L102.973 28.3786H91.5376Z" fill="#CED8F2"/>
<path d="M130.86 46.3525L134.203 35.9254H150.454L153.796 46.3525H164L148.475 0.625179H136.204L120.657 46.3525H130.86ZM136.622 28.3786L142.163 11.0746H142.515L148.057 28.3786H136.622Z" fill="#CED8F2"/>
</svg>
