<svg width="13" height="18" viewBox="0 0 13 18" fill="none" xmlns="http://www.w3.org/2000/svg">
<path d="M5.83199 17.4709C0.913047 10.3399 0 9.60806 0 6.9873C0 3.39744 2.91014 0.487305 6.5 0.487305C10.0899 0.487305 13 3.39744 13 6.9873C13 9.60806 12.087 10.3399 7.16801 17.4709C6.84521 17.9372 6.15476 17.9372 5.83199 17.4709ZM6.5 9.69564C7.99578 9.69564 9.20833 8.48308 9.20833 6.9873C9.20833 5.49153 7.99578 4.27897 6.5 4.27897C5.00422 4.27897 3.79167 5.49153 3.79167 6.9873C3.79167 8.48308 5.00422 9.69564 6.5 9.69564Z" fill="#BBC9ED"/>
</svg>
