<svg width="141" height="58" viewBox="0 0 141 58" fill="none" xmlns="http://www.w3.org/2000/svg">
<g clip-path="url(#clip0_2_1035)">
<path d="M12.11 15.3741L0 14.7058L12.11 13.7702V15.3741Z" fill="#224497"/>
<path d="M12.3791 13.2355L8.61157 8.5573L13.4555 12.2998L12.3791 13.2355Z" fill="#224497"/>
<path d="M14.1282 12.0325L14.6664 0.00305176L15.6084 12.0325H14.1282Z" fill="#224497"/>
<path d="M16.0122 12.2998L20.9907 8.29004L17.0886 13.2355L16.0122 12.2998Z" fill="#224497"/>
<path d="M17.2231 13.9037L29.1985 14.4384L17.2231 15.3739V13.9037Z" fill="#224497"/>
<path d="M14.6665 16.7105C15.7812 16.7105 16.6848 15.8129 16.6848 14.7057C16.6848 13.5984 15.7812 12.7008 14.6665 12.7008C13.5518 12.7008 12.6482 13.5984 12.6482 14.7057C12.6482 15.8129 13.5518 16.7105 14.6665 16.7105Z" fill="#ED1C24"/>
<path d="M8.34253 17.5127H13.8593L12.7828 22.5918H10.6301L8.34253 20.0523V17.5127Z" fill="#224497"/>
<path d="M20.9907 17.5127H15.4739L16.5502 22.5918H18.7032L20.9907 20.0523V17.5127Z" fill="#224497"/>
<path d="M10.3607 23.2601H12.6483V51.4625C12.0513 51.5055 11.4847 51.74 11.0336 52.1308C10.2263 52.799 9.41898 53.2 9.5536 51.8635C9.82264 50.5269 9.82264 50.1259 9.41898 49.8586C9.01532 49.7249 8.47705 50.6606 8.47705 50.6606L10.3607 23.2601Z" fill="#ED1C24"/>
<path d="M16.6848 52.398V23.2601H19.1068L21.3943 52.9327C20.8133 52.3964 20.1258 51.9866 19.376 51.7298C18.1648 51.3288 17.4921 51.8635 16.6848 52.398Z" fill="#ED1C24"/>
<path d="M12.1099 54.6704C11.8408 54.9376 10.0916 55.4723 9.4187 56.007C8.61138 56.5417 7.53501 56.9427 6.72751 56.9427C6.05481 56.9427 5.51654 56.408 6.18924 55.2051C6.86195 54.0021 6.99656 52.9329 7.93849 51.8635C8.88043 50.7941 9.28408 50.5269 9.41852 51.0616C9.55313 51.7298 9.2839 51.9972 9.2839 52.6655C9.2839 53.3337 9.41852 53.4674 10.3603 53.0665C11.302 52.6655 11.4366 52.2645 11.9749 52.2645C12.5132 52.2645 12.3786 52.1308 12.9168 51.9972C13.5895 51.73 13.7242 52.2645 14.1278 52.7992C14.6661 53.3339 14.9351 53.7349 15.3388 53.7349C15.7425 53.7349 16.0115 53.0666 17.2225 52.6657C18.4335 52.131 19.2408 52.3984 20.5864 53.3339C21.5431 53.9693 22.4435 54.6848 23.2775 55.4725C23.8158 56.1407 23.1429 56.4082 22.7393 56.2745C22.3356 56.1407 21.932 55.8735 21.5283 54.9378C21.1246 54.0021 20.8556 53.8686 20.0483 53.7349C19.241 53.6012 18.5682 53.7349 18.299 54.1359C18.0298 54.5368 17.6263 54.8041 17.2227 55.2051C16.6847 55.6059 16.1467 55.6059 15.8774 56.2743C15.4738 56.9425 15.3392 56.9425 14.3974 56.9425C13.4555 56.8088 13.0518 56.6753 13.1864 56.0068C13.321 55.3384 13.4555 55.2049 13.0518 54.9376C12.6482 54.5367 12.5135 54.4029 12.1099 54.6704Z" fill="#224497"/>
<path d="M35.7315 38.0674C35.7322 38.0972 35.7268 38.1268 35.7156 38.1544C35.7045 38.1821 35.6878 38.2072 35.6666 38.2282C35.6454 38.2493 35.6201 38.2659 35.5923 38.277C35.5645 38.2881 35.5346 38.2934 35.5047 38.2928H33.9175V23.6504H35.7315V38.0674Z" fill="#224497"/>
<path d="M51.1521 37.3916V37.842L50.9252 38.0674L50.6984 38.2928H49.3377C49.1109 38.2928 49.1109 38.0674 48.8843 38.0674C48.6577 38.0674 48.6574 37.842 48.4309 37.617C48.2043 37.3919 48.204 37.1662 47.9774 36.9412L43.2152 28.381L42.5349 27.0294L41.8546 25.6778V38.5181L41.6277 38.7435H40.2671C40.2371 38.7442 40.2073 38.7388 40.1795 38.7277C40.1517 38.7166 40.1264 38.7 40.1052 38.679C40.084 38.6579 40.0673 38.6328 40.0561 38.6052C40.045 38.5775 40.0396 38.5479 40.0402 38.5181V24.5516C40.025 24.4293 40.0375 24.3051 40.0767 24.1882C40.116 24.0713 40.181 23.9645 40.2671 23.8758C40.3848 23.7473 40.5464 23.6669 40.7205 23.6504H42.0812C42.308 23.6504 42.308 23.6504 42.5346 23.8758C42.7615 23.8758 42.7615 24.1012 42.988 24.3262C42.988 24.5516 43.2149 24.7766 43.4415 25.002L47.0702 31.5349C47.2971 31.9853 47.5237 32.2106 47.7505 32.6611C47.9774 33.1115 48.204 33.3369 48.4309 33.7873C48.6577 34.2377 48.8843 34.4631 49.1112 34.9135C49.338 35.3639 49.5646 35.5893 49.5646 36.0397V24.1008L49.7915 23.8755H51.1521C51.1821 23.8748 51.2119 23.8802 51.2397 23.8913C51.2675 23.9024 51.2928 23.919 51.314 23.94C51.3352 23.9611 51.3519 23.9862 51.3631 24.0138C51.3742 24.0415 51.3796 24.0711 51.379 24.1008V37.3916H51.1521Z" fill="#224497"/>
<path d="M64.5322 24.3265V25.0023C64.5328 25.0321 64.5274 25.0617 64.5162 25.0893C64.5051 25.117 64.4884 25.1421 64.4672 25.1631C64.446 25.1842 64.4207 25.2008 64.3929 25.2119C64.3651 25.223 64.3353 25.2283 64.3053 25.2277H59.77V38.2931H57.9556V25.2274H53.4203L53.1934 25.002V23.6504C53.1928 23.6207 53.1982 23.5911 53.2094 23.5635C53.2206 23.5359 53.2373 23.5108 53.2585 23.4898C53.2797 23.4688 53.3049 23.4522 53.3327 23.4411C53.3606 23.4301 53.3903 23.4247 53.4203 23.4254H64.3053L64.5322 23.6507V24.3265Z" fill="#224497"/>
<path d="M74.9638 37.3919V38.0677C74.9645 38.0975 74.9591 38.1271 74.9479 38.1547C74.9367 38.1824 74.9201 38.2075 74.8989 38.2286C74.8777 38.2496 74.8524 38.2662 74.8245 38.2773C74.7967 38.2884 74.7669 38.2937 74.7369 38.2931H67.2535C67.0266 38.2931 66.8001 38.2931 66.8001 38.0677C66.5732 37.8424 66.5732 37.8424 66.5732 37.3919V24.1012C66.558 23.9788 66.5704 23.8547 66.6097 23.7378C66.6489 23.6209 66.714 23.5141 66.8001 23.4254H74.7369L74.9638 23.6507V25.0023L74.7369 25.2277H68.6141V29.9582H74.0566L74.2835 30.1836V31.5349L74.0566 31.7602H68.841V37.1666H74.9638L75.1907 37.3919V37.6173C74.9638 37.1666 74.9638 37.3919 74.9638 37.3919Z" fill="#224497"/>
<path d="M88.3432 38.0677C88.3432 38.2931 88.3432 38.2931 88.1163 38.2931H86.7557C86.7257 38.2937 86.6959 38.2884 86.6681 38.2773C86.6402 38.2662 86.615 38.2496 86.5938 38.2285C86.5726 38.2075 86.5559 38.1824 86.5447 38.1547C86.5335 38.1271 86.5281 38.0975 86.5288 38.0677V37.8424L85.1682 34.238C84.9413 33.7876 84.9413 33.5622 84.7147 33.1118C84.4879 32.8864 84.2613 32.436 84.0344 32.2107C83.9265 32.0732 83.7891 31.9614 83.6321 31.8835C83.4752 31.8056 83.3027 31.7635 83.1272 31.7602C82.9004 31.5349 82.4469 31.5349 81.9935 31.5349H80.6329V38.0677H78.8188V24.1012C78.8036 23.9788 78.816 23.8547 78.8553 23.7378C78.8945 23.6209 78.9596 23.5141 79.0457 23.4254C79.2725 23.2 79.2725 23.2 79.4991 23.2H84.2613C84.8205 23.2131 85.367 23.3682 85.8488 23.6504C86.3022 23.8758 86.756 24.1008 86.9826 24.5516C87.2589 24.8951 87.4877 25.2739 87.6629 25.6778C87.8477 26.1034 87.9256 26.5672 87.8897 27.0294C87.9256 27.4915 87.8477 27.9554 87.6629 28.381C87.436 28.8314 87.436 29.0568 86.9826 29.5072C86.7557 29.7325 86.5291 30.183 86.0754 30.4083C85.6216 30.6337 85.3951 30.8588 84.9416 30.8588C85.1685 30.8588 85.3951 31.0841 85.6219 31.3092C85.8488 31.5343 86.0754 31.7596 86.0754 31.985C86.3022 32.2103 86.3022 32.4354 86.5288 32.8861C86.7557 33.1115 86.7557 33.5619 86.9822 34.0124L88.3429 37.3913C88.3429 37.6167 88.5697 37.8417 88.5697 38.0671C88.3429 37.8417 88.3429 37.8417 88.3429 38.0671L88.3432 38.0677ZM85.3954 27.4801C85.3821 26.9246 85.2259 26.3817 84.9416 25.9032C84.7147 25.4527 84.2613 25.2274 83.581 25.002C83.4579 25.0171 83.3329 25.0047 83.2152 24.9658C83.0975 24.9268 82.99 24.8622 82.9007 24.7766H80.4063V29.7329H82.4472C82.9125 29.7685 83.3794 29.6911 83.8079 29.5075C84.2613 29.2821 84.4882 29.2821 84.715 29.0571C84.8534 28.9499 84.9659 28.8133 85.0444 28.6574C85.1228 28.5015 85.1652 28.3302 85.1685 28.1559C85.3262 27.9666 85.4071 27.7256 85.3954 27.4801Z" fill="#224497"/>
<path d="M100.363 27.7055C100.32 28.4009 100.167 29.0852 99.9091 29.7328C99.6656 30.3421 99.2765 30.8833 98.7753 31.3098C98.3219 31.7602 97.6416 31.9856 97.1878 32.211C96.3909 32.5106 95.5456 32.6633 94.6935 32.6614H92.8788V38.2931H91.0647V24.3265C91.0471 24.2041 91.0584 24.0793 91.0978 23.962C91.1371 23.8446 91.2034 23.738 91.2915 23.6506C91.3795 23.5631 91.4868 23.4973 91.6049 23.4582C91.723 23.4191 91.8487 23.4078 91.9719 23.4254H96.0538C96.4443 23.4102 96.8329 23.4874 97.1875 23.6507C97.608 23.6592 98.0109 23.8193 98.3213 24.1012C98.7516 24.33 99.1359 24.6354 99.455 25.0023C99.6819 25.4527 99.9085 25.6781 100.135 26.1285C100.321 26.6326 100.399 27.1698 100.362 27.7055H100.363ZM98.3216 27.9308C98.3084 27.3754 98.1523 26.8325 97.8682 26.3539C97.6898 25.9514 97.3661 25.6299 96.961 25.4527C96.7341 25.2274 96.2807 25.2274 95.8272 25.0023H92.8788V31.0844H94.6929C95.3732 31.0844 95.8266 31.0844 96.2804 30.8591C96.6216 30.6905 96.9291 30.4615 97.1875 30.1833C97.4144 29.9579 97.641 29.5075 97.8679 29.2821C98.04 29.1047 98.1701 28.8912 98.2486 28.6575C98.3271 28.4237 98.352 28.1754 98.3216 27.9308Z" fill="#224497"/>
<path d="M116.01 30.6337C115.986 31.6992 115.834 32.7579 115.556 33.7873C115.333 34.719 114.863 35.5745 114.195 36.2651C113.572 36.8596 112.888 37.3881 112.155 37.842C111.247 38.2925 110.34 38.2925 109.206 38.2925C108.208 38.2702 107.217 38.1188 106.258 37.842C105.351 37.6167 104.671 36.9409 104.217 36.4905C103.663 35.7559 103.276 34.9105 103.083 34.0127C102.805 32.9833 102.653 31.9245 102.63 30.8591C102.653 29.7936 102.805 28.7348 103.083 27.7055C103.306 26.7738 103.776 25.9183 104.444 25.2277C105.067 24.6332 105.751 24.1047 106.485 23.6507C107.392 23.2 108.299 23.2 109.433 23.2C110.431 23.2223 111.422 23.3737 112.381 23.6504C113.288 23.8758 113.969 24.5516 114.422 25.002C114.933 25.6792 115.317 26.4423 115.556 27.2547C115.818 28.3636 115.97 29.4953 116.009 30.6337H116.01ZM113.969 30.8591C113.969 29.9579 113.969 29.2821 113.742 28.6063C113.553 27.9923 113.326 27.3904 113.061 26.8043L111.701 25.4527C110.977 25.1733 110.209 25.0209 109.433 25.0023C108.657 25.0209 107.889 25.1733 107.165 25.4527C106.844 25.5498 106.552 25.7239 106.315 25.9596C106.078 26.1953 105.902 26.4854 105.805 26.8043C105.35 27.2941 105.106 27.9406 105.124 28.6063C104.937 29.3419 104.86 30.1011 104.897 30.8591C104.86 31.6914 104.937 32.5249 105.124 33.3369C105.313 33.9509 105.54 34.5528 105.805 35.1389L107.165 36.4905C107.889 36.7699 108.657 36.9223 109.433 36.9409C110.209 36.9223 110.977 36.7699 111.701 36.4905C112.022 36.3934 112.314 36.2193 112.551 35.9836C112.788 35.7479 112.964 35.4578 113.061 35.1389C113.516 34.6491 113.76 34.0026 113.742 33.3369C113.742 32.436 113.969 31.5349 113.969 30.8591Z" fill="#224497"/>
<path d="M129.163 38.0677C129.163 38.2931 129.163 38.2931 128.936 38.2931H127.575C127.545 38.2937 127.516 38.2884 127.488 38.2773C127.46 38.2662 127.435 38.2496 127.413 38.2285C127.392 38.2075 127.376 38.1824 127.364 38.1547C127.353 38.1271 127.348 38.0975 127.348 38.0677V37.8424L125.988 34.238C125.761 33.7876 125.761 33.5622 125.534 33.1118C125.308 32.8864 125.081 32.436 124.854 32.2107C124.746 32.0732 124.609 31.9614 124.452 31.8835C124.295 31.8056 124.122 31.7635 123.947 31.7602C123.72 31.5349 123.267 31.5349 122.813 31.5349H121.453V38.0677H119.638V24.1012C119.623 23.9788 119.635 23.8547 119.675 23.7378C119.714 23.6209 119.779 23.5141 119.865 23.4254C120.092 23.2 120.092 23.2 120.318 23.2H125.081C125.64 23.2131 126.186 23.3682 126.668 23.6504C127.122 23.8758 127.575 24.1008 127.802 24.5516C128.078 24.8951 128.307 25.2739 128.482 25.6778C128.667 26.1034 128.745 26.5672 128.709 27.0294C128.745 27.4915 128.667 27.9554 128.482 28.381C128.255 28.8314 128.255 29.0568 127.802 29.5072C127.575 29.7325 127.348 30.183 126.895 30.4083C126.441 30.6337 126.214 30.8588 125.761 30.8588C125.988 30.8588 126.214 31.0841 126.441 31.3092C126.668 31.5343 126.895 31.7596 126.895 31.985C127.122 32.2103 127.122 32.4354 127.348 32.8861C127.575 33.1115 127.575 33.5619 127.802 34.0124L129.162 37.3913C129.162 37.6167 129.389 37.8417 129.389 38.0671C129.162 37.8417 129.162 37.8417 129.162 38.0671L129.163 38.0677ZM126.215 27.4801C126.201 26.9246 126.045 26.3817 125.761 25.9032C125.534 25.4527 125.081 25.2274 124.4 25.002C124.277 25.0171 124.152 25.0047 124.035 24.9658C123.917 24.9268 123.809 24.8622 123.72 24.7766H121.226V29.7329H123.267C123.732 29.7685 124.199 29.6911 124.627 29.5075C125.081 29.2821 125.308 29.2821 125.534 29.0571C125.673 28.9499 125.785 28.8133 125.864 28.6574C125.942 28.5015 125.985 28.3302 125.988 28.1559C126.146 27.9666 126.226 27.7256 126.215 27.4801Z" fill="#224497"/>
<path d="M141.182 24.3265V25.0023C141.182 25.0321 141.177 25.0617 141.166 25.0893C141.155 25.117 141.138 25.1421 141.117 25.1631C141.096 25.1842 141.07 25.2008 141.043 25.2119C141.015 25.223 140.985 25.2283 140.955 25.2277H136.42V38.2931H134.605V25.2274H130.07L129.843 25.002V23.6504C129.842 23.6207 129.848 23.5911 129.859 23.5635C129.87 23.5359 129.887 23.5108 129.908 23.4898C129.929 23.4688 129.955 23.4522 129.982 23.4411C130.01 23.4301 130.04 23.4247 130.07 23.4254H140.955L141.182 23.6507V24.3265Z" fill="#224497"/>
<path d="M38.5178 47.6854C38.2821 48.0208 37.9525 48.2723 37.5289 48.44C37.1084 48.6045 36.618 48.6868 36.0574 48.6868C35.4905 48.6868 34.9872 48.5555 34.5477 48.2929C34.1082 48.0271 33.7674 47.6506 33.5253 47.1634C33.2865 46.6762 33.1638 46.1114 33.1575 45.4692V44.8664C33.1575 43.8255 33.4011 43.0188 33.8884 42.4461C34.3789 41.8735 35.0669 41.5871 35.9523 41.5871C36.6785 41.5871 37.2629 41.7722 37.7056 42.1424C38.1483 42.5094 38.4191 43.0314 38.5178 43.7085H37.6005C37.4285 42.7941 36.8807 42.337 35.9571 42.337C35.3424 42.337 34.8758 42.5521 34.5573 42.9824C34.242 43.4095 34.0827 44.0296 34.0795 44.8427V45.4075C34.0795 46.1826 34.2579 46.7995 34.6146 47.2583C34.9713 47.7139 35.4538 47.9417 36.0622 47.9417C36.4062 47.9417 36.7071 47.9037 36.9651 47.8278C37.2231 47.7519 37.4365 47.6237 37.6053 47.4434V45.8915H35.9953V45.1512H38.5178V47.6854Z" fill="#224497"/>
<path d="M42.6025 45.7966H40.9686V48.5918H40.0466V41.6821H42.3493C43.1328 41.6821 43.7348 41.8592 44.1552 42.2136C44.5788 42.5679 44.7906 43.0836 44.7906 43.7607C44.7906 44.191 44.6728 44.5659 44.4371 44.8854C44.2046 45.205 43.8797 45.4438 43.4625 45.602L45.0964 48.5349V48.5918H44.1122L42.6025 45.7966ZM40.9686 45.0515H42.378C42.8334 45.0515 43.1949 44.9345 43.4625 44.7003C43.7332 44.4662 43.8686 44.153 43.8686 43.7607C43.8686 43.3336 43.7396 43.0061 43.4816 42.7783C43.2268 42.5505 42.8573 42.435 42.3732 42.4319H40.9686V45.0515Z" fill="#224497"/>
<path d="M51.4313 45.36C51.4313 46.0371 51.3166 46.6287 51.0873 47.1349C50.858 47.638 50.5331 48.0224 50.1127 48.2881C49.6923 48.5539 49.2018 48.6868 48.6413 48.6868C48.0934 48.6868 47.6077 48.5539 47.1841 48.2881C46.7605 48.0192 46.4309 47.638 46.1952 47.1444C45.9627 46.6477 45.8433 46.0734 45.8369 45.4217V44.9234C45.8369 44.259 45.9531 43.6721 46.1856 43.1627C46.4181 42.6534 46.7462 42.2642 47.1698 41.9953C47.5966 41.7232 48.0839 41.5871 48.6317 41.5871C49.1891 41.5871 49.6796 41.7216 50.1032 41.9905C50.53 42.2563 50.858 42.6439 51.0873 43.1532C51.3166 43.6594 51.4313 44.2495 51.4313 44.9234V45.36ZM50.5188 44.9139C50.5188 44.0945 50.3532 43.4665 50.022 43.0298C49.6907 42.5901 49.2273 42.3702 48.6317 42.3702C48.052 42.3702 47.595 42.5901 47.2606 43.0298C46.9293 43.4665 46.7589 44.0739 46.7494 44.8522V45.36C46.7494 46.1541 46.9166 46.779 47.251 47.2346C47.5886 47.687 48.052 47.9132 48.6413 47.9132C49.2337 47.9132 49.6923 47.6996 50.0172 47.2725C50.342 46.8423 50.5093 46.2269 50.5188 45.4264V44.9139Z" fill="#224497"/>
<path d="M57.7041 41.6821V46.3803C57.7009 47.0321 57.4939 47.5652 57.0831 47.9796C56.6754 48.3941 56.1212 48.6266 55.4205 48.6773L55.1768 48.6868C54.4156 48.6868 53.8089 48.4827 53.3566 48.0746C52.9044 47.6664 52.675 47.1048 52.6687 46.3898V41.6821H53.5764V46.3614C53.5764 46.8612 53.7149 47.2504 53.992 47.5288C54.2691 47.8041 54.6641 47.9417 55.1768 47.9417C55.696 47.9417 56.0925 47.8041 56.3664 47.5288C56.6435 47.2535 56.7821 46.866 56.7821 46.3661V41.6821H57.7041Z" fill="#224497"/>
<path d="M60.069 45.8868V48.5918H59.1517V41.6821H61.7172C62.4784 41.6821 63.074 41.8751 63.504 42.261C63.9371 42.647 64.1537 43.158 64.1537 43.7939C64.1537 44.4646 63.9419 44.9819 63.5183 45.3458C63.0979 45.7064 62.4943 45.8868 61.7077 45.8868H60.069ZM60.069 45.1417H61.7172C62.2077 45.1417 62.5835 45.0278 62.8447 44.8C63.1059 44.569 63.2364 44.2368 63.2364 43.8034C63.2364 43.3921 63.1059 43.0631 62.8447 42.8163C62.5835 42.5695 62.2252 42.4414 61.7698 42.4319H60.069V45.1417Z" fill="#224497"/>
</g>
<defs>
<clipPath id="clip0_2_1035">
<rect width="141" height="58" fill="white"/>
</clipPath>
</defs>
</svg>
