<svg width="14" height="14" viewBox="0 0 14 14" fill="none" xmlns="http://www.w3.org/2000/svg">
<path d="M4.8125 5.90548H9.1875C9.42922 5.90548 9.625 5.7097 9.625 5.46798V5.03048C9.625 4.78876 9.42922 4.59298 9.1875 4.59298H4.8125C4.57078 4.59298 4.375 4.78876 4.375 5.03048V5.46798C4.375 5.7097 4.57078 5.90548 4.8125 5.90548ZM4.375 8.09298C4.375 8.3347 4.57078 8.53048 4.8125 8.53048H9.1875C9.42922 8.53048 9.625 8.3347 9.625 8.09298V7.65548C9.625 7.41376 9.42922 7.21798 9.1875 7.21798H4.8125C4.57078 7.21798 4.375 7.41376 4.375 7.65548V8.09298ZM7 11.4051C6.55102 11.4051 6.10203 11.2668 5.71867 10.9898L0 6.85868V12.6867C0 13.4116 0.587617 13.9992 1.3125 13.9992H12.6875C13.4124 13.9992 14 13.4116 14 12.6867V6.85868L8.28133 10.9898C7.89797 11.2665 7.44898 11.4051 7 11.4051ZM13.4971 4.45489C13.2552 4.26513 13.0257 4.08657 12.6875 3.83118V2.62423C12.6875 1.89935 12.0999 1.31173 11.375 1.31173H9.25449C9.17137 1.25157 9.09398 1.19525 9.00731 1.13235C8.54766 0.796847 7.63438 -0.0103404 7 -0.000770127C6.36562 -0.0103404 5.45262 0.796847 4.9927 1.13235C4.90602 1.19525 4.82863 1.25157 4.74551 1.31173H2.625C1.90012 1.31173 1.3125 1.89935 1.3125 2.62423V3.83118C0.974258 4.0863 0.744844 4.26513 0.502852 4.45489C0.346215 4.57765 0.219547 4.73442 0.13243 4.91334C0.0453121 5.09227 2.69556e-05 5.28866 0 5.48767L0 5.77888L2.625 7.67517V2.62423H11.375V7.67517L14 5.77888V5.48767C14 5.08462 13.8146 4.70372 13.4971 4.45489Z" fill="#BBC9ED"/>
</svg>
